# xmcd CD database file
#
# Track frame offsets:
#	150
#	5090
#	22440
#	40355
#	64200
#	81715
#	101153
#	120303
#	156423
#	170568
#	189733
#	211210
#	231645
#	251970
#	269085
#	290850
#	309633
#	334050
#
# Disc length: 4589 seconds
#
# Revision: 5
# Processed by: cddbd v1.5.1PL0 Copyright (c) Steve Scherf et al.
# Submitted via: CDex 1.51
#
DISCID=2d11eb12
DTITLE=Enigma - Love Sensuality Devotion - The Greatest Hits
DYEAR=2001
DGENRE=New Age
TTITLE0=The Landing
TTITLE1=Turn Around
TTITLE2=Gravity of Love
TTITLE3=T.N.T. For The Brain
TTITLE4=Modern Crusaders
TTITLE5=Shadows in Silence
TTITLE6=Return to Innocence
TTITLE7=I Love You . . . I'll Kill You
TTITLE8=Principles of Lust
TTITLE9=Sadeness (Part I)
TTITLE10=Silence Must Be Heard
TTITLE11=Smell of Desire
TTITLE12=Mea Culpa
TTITLE13=Push the Limits
TTITLE14=Beyond the Invisible
TTITLE15=Age of Loneliness
TTITLE16=Morphing Thru Time
TTITLE17=The Cross of Changes
EXTD=ok YEAR: 2001
EXTT0=ok
EXTT1=ok
EXTT2=ok
EXTT3=ok
EXTT4=ok
EXTT5=ok
EXTT6=ok
EXTT7=ok
EXTT8=ok
EXTT9=ok
EXTT10=ok
EXTT11=ok
EXTT12=ok
EXTT13=ok
EXTT14=ok
EXTT15=ok
EXTT16=ok
EXTT17=ok
PLAYORDER=
